<?xml version="1.0" encoding="UTF-8" standalone="no"?>
<!-- Created with Inkscape (http://www.inkscape.org/) -->

<svg
   version="1.1"
   id="svg2"
   xml:space="preserve"
   width="360.85333"
   height="303.88"
   viewBox="0 0 360.85333 303.88"
   sodipodi:docname="Oregon_Voices_logo (1).eps"
   xmlns:inkscape="http://www.inkscape.org/namespaces/inkscape"
   xmlns:sodipodi="http://sodipodi.sourceforge.net/DTD/sodipodi-0.dtd"
   xmlns="http://www.w3.org/2000/svg"
   xmlns:svg="http://www.w3.org/2000/svg"><defs
     id="defs6" /><sodipodi:namedview
     id="namedview4"
     pagecolor="#ffffff"
     bordercolor="#666666"
     borderopacity="1.0"
     inkscape:pageshadow="2"
     inkscape:pageopacity="0.0"
     inkscape:pagecheckerboard="0" /><g
     id="g8"
     inkscape:groupmode="layer"
     inkscape:label="ink_ext_XXXXXX"
     transform="matrix(1.3333333,0,0,-1.3333333,0,303.88)"><g
       id="g10"
       transform="scale(0.1)"><path
         d="m 18.8984,672.301 c 19.293,39.379 38.2383,78.109 41.9336,122.039 0.1563,1.871 0.1094,4.379 1.2422,5.449 9.5156,8.973 3.9805,21.332 7.2813,31.793 3.2304,10.25 4.0898,21.34 5.1601,32.148 0.5977,6.059 -0.2734,12.301 -0.875,18.418 -1.4336,14.684 5.168,22.442 19.6914,22.801 10.824,0.281 12.293,2.59 9.992,12.481 -1.086,4.679 -1.668,10.492 0.121,14.672 24.192,56.488 33.313,116.638 42.098,176.638 7.34,50.12 12.109,100.64 17.187,151.06 2.27,22.53 2.372,45.26 3.739,67.89 0.457,7.54 1.195,15.16 2.844,22.51 4.843,21.59 8.109,43.13 8.066,65.49 -0.051,25.53 3.394,51.05 4.332,76.61 0.887,24.15 2.187,48.49 0.113,72.47 -1.636,18.94 6.692,33.72 12.918,49.81 1.731,4.47 3.371,9.41 3.242,14.09 -0.457,16.93 -4.136,34.03 4.528,50.15 0.816,1.53 1.426,4.18 0.664,5.36 -6.742,10.46 0.308,18.17 3.566,27.54 4.418,12.71 5.863,26.72 6.883,40.29 1.277,17.01 0.996,34.14 1.063,51.22 0.046,12.17 -0.196,12.17 -9.821,19.95 3.813,5.67 9.516,10.91 10.918,17.12 1.449,6.44 -2.308,13.87 -1.965,20.77 1.024,20.33 2.547,40.66 4.641,60.91 1.848,17.9 4.812,35.68 7.109,53.54 1.512,11.75 -1.406,22.78 -7.363,32.75 -5.969,9.98 -7.019,19.77 -4.355,31.22 4.777,20.53 6.593,41.24 -4.649,60.88 -4.941,8.64 1.488,15.35 6.879,19.68 8.633,6.95 10.07,15.5 10.223,25.21 0.347,21.63 -3.289,42.44 -12.094,62.34 -3.363,7.6 -5.906,15.56 -8.816,23.35 8.738,5.33 14.402,2.17 19.527,-2.32 5.344,-4.69 9.933,-10.3 15.57,-14.56 3.598,-2.72 8.492,-3.72 15.762,-6.71 -2.231,7.42 -3.344,11.12 -4.738,15.76 8.172,1.95 15.402,4.2 22.804,5.21 3.246,0.45 7.602,-0.69 10.149,-2.74 16.523,-13.24 40.601,-9.24 50.062,8.72 3.059,5.81 19.254,12.73 27.235,11.68 3.16,-0.42 6.332,-0.71 8.277,-0.93 4.219,5.77 7.637,10.44 11.055,15.11 3.871,-4.41 8.472,-8.38 11.449,-13.32 4.875,-8.09 8.945,-16.71 12.91,-25.3 6.555,-14.22 16.914,-19.68 32.082,-14.97 7.094,2.2 14.152,5.8 20.066,10.29 16.668,12.67 32.922,12.97 49.575,0.51 11.742,-8.77 23.398,-17.67 35.254,-26.29 4.125,-3 8.437,-6.46 13.191,-7.73 8.418,-2.25 13.043,-7.21 14.953,-15.29 3.551,-14.98 10.449,-28.32 19.235,-40.91 6.308,-9.05 10.433,-18.91 9.449,-30.62 -0.418,-4.95 2.16,-10.08 2.875,-15.2 1.218,-8.73 2.086,-17.5 3.019,-26.27 0.492,-4.66 -0.625,-10.14 1.469,-13.86 7.191,-12.76 6.547,-26.35 6.645,-40.14 0.066,-9.31 -1.891,-21.64 3.093,-27.21 8.078,-9.04 20.481,-15.33 32.203,-19.71 18.067,-6.76 37.051,-11.11 55.754,-16.08 6.832,-1.82 13.953,-3.41 20.961,-3.5 11.235,-0.14 20.949,-3.18 31.043,-8.3 6.266,-3.18 16.039,-3.08 22.949,-0.7 27.766,9.54 55.75,19.02 82.18,31.63 13.703,6.53 28.731,12.99 37.34,28.76 6.156,11.27 20.516,12.01 32.227,9.86 24.769,-4.53 48.074,-0.17 71.08,8.21 10.57,3.85 20.76,3.02 30.05,-2.84 10.6,-6.69 21.87,-8.88 34.01,-7.3 18.85,2.43 35.29,-5.65 52.21,-11.62 7.72,-2.72 7.8,-10.04 9.3,-16.38 3.31,-14.01 11.09,-18.33 20.32,-8.47 19.45,20.76 42.98,12.97 65.37,12.1 7.26,-0.27 12.4,0.52 18.11,4.69 6.84,4.99 14.38,9.11 21.92,13.02 16.37,8.47 33.28,15.96 49.31,25.01 12.88,7.28 25.97,10.04 36.85,-0.51 22.86,-22.16 48.54,-16.08 74.63,-10.19 3.69,0.84 7.24,2.83 10.93,3.08 14.48,0.97 26.39,6.31 35.41,18.08 2.18,2.84 5.9,5.21 9.37,6.21 27.72,8.01 51.85,26.14 81.51,28.79 3.47,0.31 8.09,2.22 9.84,4.91 5.75,8.85 14.02,9.02 22.63,7.8 15.31,-2.16 27.09,2.44 38.02,13.9 7.23,7.58 17.75,12.33 27.35,17.28 9.47,4.87 19.4,4.66 28.03,-2.56 6.17,-5.16 12.56,-5.19 19.95,-3.19 17.39,4.7 34.83,9.36 52.47,12.93 7.66,1.56 16.81,2.76 23.66,0.04 27.38,-10.84 48.34,0.92 67.19,18.08 7.36,6.7 14,9.58 23.63,9.57 219.2,-0.19 438.39,-0.23 657.58,0.07 10.78,0.02 18.45,-2.43 22.8,-12.55 9.4,-21.84 22.52,-41.43 35.9,-60.95 4.18,-6.09 7.95,-10.24 15.63,-9.68 9.09,0.66 15.46,-3.58 19.5,-11.53 3.2,-6.29 8.34,-7.94 15.19,-8.14 19.73,-0.59 28.82,-9.82 32.39,-28.78 1.7,-9.01 6.02,-17.68 10.09,-26.05 2.87,-5.9 7.55,-10.9 10.99,-16.55 4.3,-7.06 4.42,-14.35 -0.04,-21.53 -4.01,-6.44 -7.56,-13.22 -12.07,-19.29 -7.21,-9.71 -12.74,-19.58 -12.94,-32.34 -0.09,-5.11 -4.19,-10.24 -6.75,-15.21 -10.07,-19.62 -24.33,-38.18 -29.37,-58.99 -6.42,-26.45 -20.07,-50.85 -21.59,-78.66 -0.33,-6.12 -4.49,-12.44 -8.05,-17.9 -9.25,-14.19 -19.19,-27.93 -28.77,-41.9 -3.94,-5.75 -3.68,-11.75 0.19,-17.3 3.98,-5.72 4.59,-11.16 0.61,-17.09 -1.01,-1.5 -1.94,-3.71 -1.61,-5.33 3.65,-17.49 -7.93,-29.47 -15.27,-42.98 -1.35,-2.49 -3.4,-4.64 -4.56,-7.2 -7.83,-17.18 -18.5,-31.04 -36.47,-39.5 -6.9,-3.24 -12.92,-11.53 -16.09,-18.9 -8,-18.68 -14.22,-38.13 -21.02,-57.31 -3.96,-11.16 -8.21,-21.58 -16.9,-30.67 -7.82,-8.2 -14.47,-18.41 -12.79,-31.78 0.73,-5.75 -1.33,-12.27 -3.56,-17.87 -3.18,-7.98 -2.62,-14.65 3.15,-21.01 6.92,-7.66 9.65,-15.97 4.66,-26.01 -2.66,-5.36 -0.73,-9.9 4.2,-13.56 4.97,-3.69 9.77,-6.2 15.29,-1.52 6.09,5.16 11.2,4.05 15.56,-2.13 4.64,-6.58 11.15,-8.3 18.71,-7.74 10.86,0.81 19.25,-1.69 23.54,-13.51 1.78,-4.9 7.46,-8.36 11.29,-12.54 4.44,-4.85 8.79,-9.76 12.7,-14.11 -3.05,-7.67 -5.12,-14.49 -8.42,-20.66 -2.77,-5.2 -5.98,-11.55 -10.74,-14 -9.02,-4.64 -7.14,-9.32 -3.3,-15.86 3.07,-5.24 5.59,-10.84 7.86,-16.48 0.83,-2.05 0.99,-5.03 0.13,-7 -10.12,-23.1 -5.92,-50.75 -23.25,-71.75 -3.49,-4.23 -4.79,-11.38 -4.79,-17.19 -0.09,-125.242 0.3,-250.492 0.29,-375.73 -0.02,-142.449 -0.33,-284.898 -0.55,-427.352 -0.01,-3.277 -0.57,-6.546 -1.03,-11.476 -6.55,-0.41 -12.96,-1.152 -19.36,-1.152 -386.67,-0.051 -773.34,-0.051 -1160.01,-0.051 -227.79,0 -579.581,0 -579.581,0 L 742.066,18.8984 422.895,299.719 c 0,0 -198.461,0 -275.438,0 -4.269,0 -8.551,0.211 -12.805,-0.028 -7.355,-0.421 -11.898,1.469 -14.937,9.5 -2.512,6.641 -8.067,12.981 -13.86,17.34 -14.8589,11.199 -21.6245,25.809 -22.4331,43.91 -0.6094,13.7 -0.4922,27.59 -11.9492,38.129 -2.0274,1.871 -2.0899,6.11 -2.5743,9.328 -0.6367,4.211 -0.0976,8.692 -1.25,12.711 -8.9687,31.262 -4.4609,62.661 -1.3711,94.063 0.2735,2.808 0.4922,5.91 1.8086,8.277 9.3633,16.871 6.8672,35.961 0.2852,50.653 -7.7031,17.187 -13.9688,37.046 -31.3633,49.136 -3.2383,2.25 -4.3164,8.942 -4.707,13.711 -1.2813,15.731 -0.9844,15.762 -13.4024,25.852"
         style="fill:#ffffff;fill-opacity:1;fill-rule:nonzero;stroke:none"
         id="path12" /><path
         d="m 18.8984,672.301 c 19.293,39.379 38.2383,78.109 41.9336,122.039 0.1563,1.871 0.1094,4.379 1.2422,5.449 9.5156,8.973 3.9805,21.332 7.2813,31.793 3.2304,10.25 4.0898,21.34 5.1601,32.148 0.5977,6.059 -0.2734,12.301 -0.875,18.418 -1.4336,14.684 5.168,22.442 19.6914,22.801 10.824,0.281 12.293,2.59 9.992,12.481 -1.086,4.679 -1.668,10.492 0.121,14.672 24.192,56.488 33.313,116.638 42.098,176.638 7.34,50.12 12.109,100.64 17.187,151.06 2.27,22.53 2.372,45.26 3.739,67.89 0.457,7.54 1.195,15.16 2.844,22.51 4.843,21.59 8.109,43.13 8.066,65.49 -0.051,25.53 3.394,51.05 4.332,76.61 0.887,24.15 2.187,48.49 0.113,72.47 -1.636,18.94 6.692,33.72 12.918,49.81 1.731,4.47 3.371,9.41 3.242,14.09 -0.457,16.93 -4.136,34.03 4.528,50.15 0.816,1.53 1.426,4.18 0.664,5.36 -6.742,10.46 0.308,18.17 3.566,27.54 4.418,12.71 5.863,26.72 6.883,40.29 1.277,17.01 0.996,34.14 1.063,51.22 0.046,12.17 -0.196,12.17 -9.821,19.95 3.813,5.67 9.516,10.91 10.918,17.12 1.449,6.44 -2.308,13.87 -1.965,20.77 1.024,20.33 2.547,40.66 4.641,60.91 1.848,17.9 4.812,35.68 7.109,53.54 1.512,11.75 -1.406,22.78 -7.363,32.75 -5.969,9.98 -7.019,19.77 -4.355,31.22 4.777,20.53 6.593,41.24 -4.649,60.88 -4.941,8.64 1.488,15.35 6.879,19.68 8.633,6.95 10.07,15.5 10.223,25.21 0.347,21.63 -3.289,42.44 -12.094,62.34 -3.363,7.6 -5.906,15.56 -8.816,23.35 8.738,5.33 14.402,2.17 19.527,-2.32 5.344,-4.69 9.933,-10.3 15.57,-14.56 3.598,-2.72 8.492,-3.72 15.762,-6.71 -2.231,7.42 -3.344,11.12 -4.738,15.76 8.172,1.95 15.402,4.2 22.804,5.21 3.246,0.45 7.602,-0.69 10.149,-2.74 16.523,-13.24 40.601,-9.24 50.062,8.72 3.059,5.81 19.254,12.73 27.235,11.68 3.16,-0.42 6.332,-0.71 8.277,-0.93 4.219,5.77 7.637,10.44 11.055,15.11 3.871,-4.41 8.472,-8.38 11.449,-13.32 4.875,-8.09 8.945,-16.71 12.91,-25.3 6.555,-14.22 16.914,-19.68 32.082,-14.97 7.094,2.2 14.152,5.8 20.066,10.29 16.668,12.67 32.922,12.97 49.575,0.51 11.742,-8.77 23.398,-17.67 35.254,-26.29 4.125,-3 8.437,-6.46 13.191,-7.73 8.418,-2.25 13.043,-7.21 14.953,-15.29 3.551,-14.98 10.449,-28.32 19.235,-40.91 6.308,-9.05 10.433,-18.91 9.449,-30.62 -0.418,-4.95 2.16,-10.08 2.875,-15.2 1.218,-8.73 2.086,-17.5 3.019,-26.27 0.492,-4.66 -0.625,-10.14 1.469,-13.86 7.191,-12.76 6.547,-26.35 6.645,-40.14 0.066,-9.31 -1.891,-21.64 3.093,-27.21 8.078,-9.04 20.481,-15.33 32.203,-19.71 18.067,-6.76 37.051,-11.11 55.754,-16.08 6.832,-1.82 13.953,-3.41 20.961,-3.5 11.235,-0.14 20.949,-3.18 31.043,-8.3 6.266,-3.18 16.039,-3.08 22.949,-0.7 27.766,9.54 55.75,19.02 82.18,31.63 13.703,6.53 28.731,12.99 37.34,28.76 6.156,11.27 20.516,12.01 32.227,9.86 24.769,-4.53 48.074,-0.17 71.08,8.21 10.57,3.85 20.76,3.02 30.05,-2.84 10.6,-6.69 21.87,-8.88 34.01,-7.3 18.85,2.43 35.29,-5.65 52.21,-11.62 7.72,-2.72 7.8,-10.04 9.3,-16.38 3.31,-14.01 11.09,-18.33 20.32,-8.47 19.45,20.76 42.98,12.97 65.37,12.1 7.26,-0.27 12.4,0.52 18.11,4.69 6.84,4.99 14.38,9.11 21.92,13.02 16.37,8.47 33.28,15.96 49.31,25.01 12.88,7.28 25.97,10.04 36.85,-0.51 22.86,-22.16 48.54,-16.08 74.63,-10.19 3.69,0.84 7.24,2.83 10.93,3.08 14.48,0.97 26.39,6.31 35.41,18.08 2.18,2.84 5.9,5.21 9.37,6.21 27.72,8.01 51.85,26.14 81.51,28.79 3.47,0.31 8.09,2.22 9.84,4.91 5.75,8.85 14.02,9.02 22.63,7.8 15.31,-2.16 27.09,2.44 38.02,13.9 7.23,7.58 17.75,12.33 27.35,17.28 9.47,4.87 19.4,4.66 28.03,-2.56 6.17,-5.16 12.56,-5.19 19.95,-3.19 17.39,4.7 34.83,9.36 52.47,12.93 7.66,1.56 16.81,2.76 23.66,0.04 27.38,-10.84 48.34,0.92 67.19,18.08 7.36,6.7 14,9.58 23.63,9.57 219.2,-0.19 438.39,-0.23 657.58,0.07 10.78,0.02 18.45,-2.43 22.8,-12.55 9.4,-21.84 22.52,-41.43 35.9,-60.95 4.18,-6.09 7.95,-10.24 15.63,-9.68 9.09,0.66 15.46,-3.58 19.5,-11.53 3.2,-6.29 8.34,-7.94 15.19,-8.14 19.73,-0.59 28.82,-9.82 32.39,-28.78 1.7,-9.01 6.02,-17.68 10.09,-26.05 2.87,-5.9 7.55,-10.9 10.99,-16.55 4.3,-7.06 4.42,-14.35 -0.04,-21.53 -4.01,-6.44 -7.56,-13.22 -12.07,-19.29 -7.21,-9.71 -12.74,-19.58 -12.94,-32.34 -0.09,-5.11 -4.19,-10.24 -6.75,-15.21 -10.07,-19.62 -24.33,-38.18 -29.37,-58.99 -6.42,-26.45 -20.07,-50.85 -21.59,-78.66 -0.33,-6.12 -4.49,-12.44 -8.05,-17.9 -9.25,-14.19 -19.19,-27.93 -28.77,-41.9 -3.94,-5.75 -3.68,-11.75 0.19,-17.3 3.98,-5.72 4.59,-11.16 0.61,-17.09 -1.01,-1.5 -1.94,-3.71 -1.61,-5.33 3.65,-17.49 -7.93,-29.47 -15.27,-42.98 -1.35,-2.49 -3.4,-4.64 -4.56,-7.2 -7.83,-17.18 -18.5,-31.04 -36.47,-39.5 -6.9,-3.24 -12.92,-11.53 -16.09,-18.9 -8,-18.68 -14.22,-38.13 -21.02,-57.31 -3.96,-11.16 -8.21,-21.58 -16.9,-30.67 -7.82,-8.2 -14.47,-18.41 -12.79,-31.78 0.73,-5.75 -1.33,-12.27 -3.56,-17.87 -3.18,-7.98 -2.62,-14.65 3.15,-21.01 6.92,-7.66 9.65,-15.97 4.66,-26.01 -2.66,-5.36 -0.73,-9.9 4.2,-13.56 4.97,-3.69 9.77,-6.2 15.29,-1.52 6.09,5.16 11.2,4.05 15.56,-2.13 4.64,-6.58 11.15,-8.3 18.71,-7.74 10.86,0.81 19.25,-1.69 23.54,-13.51 1.78,-4.9 7.46,-8.36 11.29,-12.54 4.44,-4.85 8.79,-9.76 12.7,-14.11 -3.05,-7.67 -5.12,-14.49 -8.42,-20.66 -2.77,-5.2 -5.98,-11.55 -10.74,-14 -9.02,-4.64 -7.14,-9.32 -3.3,-15.86 3.07,-5.24 5.59,-10.84 7.86,-16.48 0.83,-2.05 0.99,-5.03 0.13,-7 -10.12,-23.1 -5.92,-50.75 -23.25,-71.75 -3.49,-4.23 -4.79,-11.38 -4.79,-17.19 -0.09,-125.242 0.3,-250.492 0.29,-375.73 -0.02,-142.449 -0.33,-284.898 -0.55,-427.352 -0.01,-3.277 -0.57,-6.546 -1.03,-11.476 -6.55,-0.41 -12.96,-1.152 -19.36,-1.152 -386.67,-0.051 -773.34,-0.051 -1160.01,-0.051 -227.79,0 -579.581,0 -579.581,0 L 742.066,18.8984 422.895,299.719 c 0,0 -198.461,0 -275.438,0 -4.269,0 -8.551,0.211 -12.805,-0.028 -7.355,-0.421 -11.898,1.469 -14.937,9.5 -2.512,6.641 -8.067,12.981 -13.86,17.34 -14.8589,11.199 -21.6245,25.809 -22.4331,43.91 -0.6094,13.7 -0.4922,27.59 -11.9492,38.129 -2.0274,1.871 -2.0899,6.11 -2.5743,9.328 -0.6367,4.211 -0.0976,8.692 -1.25,12.711 -8.9687,31.262 -4.4609,62.661 -1.3711,94.063 0.2735,2.808 0.4922,5.91 1.8086,8.277 9.3633,16.871 6.8672,35.961 0.2852,50.653 -7.7031,17.187 -13.9688,37.046 -31.3633,49.136 -3.2383,2.25 -4.3164,8.942 -4.707,13.711 -1.2813,15.731 -0.9844,15.762 -13.4024,25.852 z"
         style="fill:none;stroke:#8bb768;stroke-width:37.8;stroke-linecap:round;stroke-linejoin:round;stroke-miterlimit:10;stroke-dasharray:none;stroke-opacity:1"
         id="path14" /><path
         d="m 600.867,1419.63 c 0,18.38 -2.484,67.09 -21.367,97.9 -25.848,42.25 -68.09,42.74 -80.02,42.74 -45.722,0 -69.578,-25.34 -80.015,-42.24 -18.887,-29.32 -22.367,-76.05 -22.367,-98.4 0,-23.86 3.48,-66.11 20.379,-95.43 16.898,-28.82 44.73,-46.72 81.507,-46.72 73.059,-0.49 101.883,66.6 101.883,142.15 z m -263.902,-3.49 c 0,111.33 59.637,185.38 162.515,185.38 98.407,0 160.528,-69.08 160.528,-184.38 0,-118.78 -64.11,-181.4 -162.016,-181.4 -102.879,0.49 -161.027,70.07 -161.027,180.4"
         style="fill:#1d3931;fill-opacity:1;fill-rule:nonzero;stroke:none"
         id="path16" /><path
         d="m 870.246,1452.43 c 12.422,10.43 18.883,25.84 18.883,41.74 0,10.44 -2.484,22.87 -9.445,34.29 -15.903,24.36 -42.739,25.85 -80.012,25.85 -6.461,0 -15.41,0 -32.305,-0.5 -0.5,-57.65 -0.5,-65.6 0,-120.77 37.77,-0.49 79.02,-1.49 102.879,19.39 z M 768.859,1243.19 c -28.328,0 -28.828,0 -54.671,-1.49 l -2.981,3.48 c 1.488,48.21 1.984,96.91 1.984,145.12 0,111.33 -1.984,150.59 -4.968,200.29 l 2.984,3.48 h 12.426 c 8.941,0 33.297,0.49 50.195,0.49 l 30.317,0.5 c 27.332,0 53.675,0 78.027,-8.45 38.269,-12.92 62.621,-40.25 62.621,-87.97 0,-39.75 -21.371,-80.01 -84.984,-97.41 8.449,-11.43 47.214,-68.08 56.16,-81 15.406,-21.87 22.363,-31.81 53.179,-72.57 l -1.992,-4.97 c -9.937,0 -20.375,0 -30.316,-0.49 -10.434,-0.5 -20.871,-1 -31.309,-1.99 l -3.476,2.48 c -1.992,3.48 -3.981,6.96 -5.965,10.44 -14.414,25.35 -31.313,49.2 -47.219,73.55 -29.816,45.23 -32.801,50.2 -44.726,66.11 -15.407,-0.5 -18.387,-1 -35.786,-0.5 0,-27.33 0.5,-103.87 3.481,-145.62 l -2.981,-3.48"
         style="fill:#1d3931;fill-opacity:1;fill-rule:nonzero;stroke:none"
         id="path18" /><path
         d="m 1247.46,1283.94 c -1.49,-16.89 -1.49,-20.37 -2.49,-37.27 l -3.47,-3.48 c -96.92,0 -112.33,-0.5 -206.75,-1.49 l -2.49,3.48 c 1.49,39.26 2.98,66.1 2.98,157.05 0,83.49 0,131.2 -3.48,188.36 l 2.99,3.48 c 97.9,0.49 117.29,0.49 208.73,1.49 l 2.99,-3.48 c -1.5,-14.91 -2.49,-20.87 -3.48,-38.76 l -2.99,-3.48 c -64.11,1.98 -85.48,1.98 -148.6,2.48 -1.49,-45.72 -1.49,-60.13 -1.49,-105.86 61.13,-0.5 80.02,0 140.65,1 l 2.49,-3.48 c -1.99,-17.4 -1.99,-22.37 -2.49,-38.27 l -2.98,-3.48 c -57.65,1.49 -70.08,1.49 -137.67,1.49 -0.99,-57.65 -0.49,-71.57 0,-118.78 75.05,0 90.45,0 154.57,2.48 l 2.98,-3.48"
         style="fill:#1d3931;fill-opacity:1;fill-rule:nonzero;stroke:none"
         id="path20" /><path
         d="m 1584.04,1412.67 c -1.99,-39.27 -2.48,-79.03 -2.48,-108.85 0,-20.37 0.49,-29.32 0.99,-44.23 l -2.98,-3.48 c -34.79,-13.91 -68.09,-20.37 -105.36,-20.37 -48.71,0 -102.38,11.92 -139.16,51.68 -24.36,26.35 -43.74,69.58 -43.74,126.74 0,57.65 19.38,103.87 47.22,134.68 44.73,50.2 102.87,52.68 129.21,52.68 53.68,0 87.48,-14.91 101.39,-21.37 l 2.49,-3.47 c -2.49,-17.4 -3.48,-25.35 -5.47,-48.22 l -3.97,-0.99 c -15.41,10.44 -45.23,29.82 -91.45,29.82 -17.9,0 -61.13,-1.99 -91.95,-43.74 -24.85,-33.79 -27.33,-76.53 -27.33,-99.39 0,-82.01 42.74,-135.19 122.76,-135.19 24.85,0 39.76,4.97 51.19,8.45 l 0.5,37.28 c 0,38.26 -1.99,68.09 -2.99,86.47 l 2.99,3.48 c 26.83,0 32.3,0 55.66,1 l 2.48,-2.98"
         style="fill:#1d3931;fill-opacity:1;fill-rule:nonzero;stroke:none"
         id="path22" /><path
         d="m 1888.32,1419.63 c 0,18.38 -2.49,67.09 -21.38,97.9 -25.84,42.25 -68.08,42.74 -80.01,42.74 -45.73,0 -69.58,-25.34 -80.02,-42.24 -18.89,-29.32 -22.36,-76.05 -22.36,-98.4 0,-23.86 3.47,-66.11 20.37,-95.43 16.9,-28.82 44.73,-46.72 81.51,-46.72 73.06,-0.49 101.89,66.6 101.89,142.15 z m -263.91,-3.49 c 0,111.33 59.64,185.38 162.52,185.38 98.4,0 160.53,-69.08 160.53,-184.38 0,-118.78 -64.12,-181.4 -162.02,-181.4 -102.88,0.49 -161.03,70.07 -161.03,180.4"
         style="fill:#1d3931;fill-opacity:1;fill-rule:nonzero;stroke:none"
         id="path24" /><path
         d="m 2287.9,1246.67 -2.48,-3.48 c -29.33,0 -31.31,0 -61.14,-1.49 l -3.97,3.48 c -29.32,52.18 -58.64,104.37 -88.46,156.55 l -78.53,140.15 4.97,-170.46 c 0.5,-20.88 1.49,-41.26 1.99,-62.13 1.49,-41.25 1.49,-42.24 2.48,-62.62 l -2.98,-3.48 c -21.86,0 -23.85,0 -47.71,-1.49 l -2.98,3.48 c 1.99,47.21 2.49,94.93 2.49,142.14 0,67.59 -0.5,135.68 -2.99,203.27 l 2.49,3.48 c 30.81,0.49 35.78,0.49 64.11,1.49 l 4.97,-3.48 c 33.79,-60.63 68.59,-123.75 101.39,-181.4 l 61.62,-108.84 -3.97,165 c -1.99,78.03 -2.49,89.46 -4.48,123.75 l 2.98,3.48 c 22.37,0 27.34,0.49 47.22,1.49 l 2.98,-3.48 c -0.99,-60.63 -1.98,-122.76 -1.98,-183.89 0,-46.71 0.49,-93.93 1.49,-140.65 l 0.49,-20.87"
         style="fill:#1d3931;fill-opacity:1;fill-rule:nonzero;stroke:none"
         id="path26" /><path
         d="m 571.258,697.191 c -61.153,0.579 -74.086,0 -125.242,-1.769 l -3.528,3.527 c -5.883,24.11 -11.761,48.223 -17.636,72.321 -19.993,77.621 -55.274,202.281 -94.668,338.11 l 2.937,3.52 c 45.863,0 56.449,0.59 105.25,4.12 l 3.531,-2.94 c 12.344,-57.04 16.461,-77.03 31.161,-137.592 l 12.351,-52.918 31.16,-138.769 25.285,108.781 18.817,77.027 c 16.465,65.271 19.402,80.561 30.574,138.181 l 3.531,3.53 c 35.282,0 47.039,0 91.141,1.76 l 2.937,-2.94 C 608.891,838.309 600.07,807.73 574.789,701.301 l -3.531,-4.11"
         style="fill:#1d3931;fill-opacity:1;fill-rule:nonzero;stroke:none"
         id="path28" /><path
         d="m 891.258,1047.64 c -11.172,0 -27.047,-2.36 -42.922,-11.76 -27.637,-17.64 -44.691,-54.099 -44.691,-124.661 0,-52.918 5.293,-148.18 87.027,-148.18 68.203,0 87.019,63.512 84.668,151.711 -0.586,14.699 -1.762,35.871 -6.465,58.211 -3.527,17.051 -8.824,34.099 -20.582,47.629 -14.109,17.05 -34.691,27.05 -57.035,27.05 z M 1085.3,905.93 c 0,-49.981 -11.76,-129.95 -69.98,-178.168 -34.683,-28.813 -80.55,-39.391 -125.824,-39.391 -29.988,0 -91.141,5.879 -135.832,47.617 -55.269,51.16 -59.973,126.434 -59.973,166.41 0,19.993 1.762,39.993 5.293,59.981 4.704,24.691 17.641,92.901 89.371,134.061 31.754,18.23 68.797,24.7 105.254,24.7 41.161,0 82.321,-10 112.311,-29.99 13.52,-8.82 25.28,-19.99 35.28,-32.93 14.7,-18.23 44.1,-59.97 44.1,-152.29"
         style="fill:#1d3931;fill-opacity:1;fill-rule:nonzero;stroke:none"
         id="path30" /><path
         d="m 1257,1110.55 c -1.77,-81.14 -2.94,-162.288 -2.94,-243.429 0,-85.262 1.17,-112.312 4.11,-166.41 l -3.53,-3.52 c -48.8,0 -60.56,0 -104.66,-1.769 l -2.94,3.527 c 2.35,61.16 3.53,97.02 3.53,166.41 0,149.941 -1.77,179.921 -5.29,243.431 l 2.35,3.53 c 42.33,-0.59 55.86,-0.59 106.43,1.76 l 2.94,-3.53"
         style="fill:#1d3931;fill-opacity:1;fill-rule:nonzero;stroke:none"
         id="path32" /><path
         d="m 1638.6,800.09 -4.11,-87.61 -2.94,-3.531 c -18.82,-7.648 -51.16,-20.578 -100.55,-20.578 -143.48,0 -212.27,99.367 -212.27,212.27 0,102.899 52.92,220.499 205.21,220.499 51.74,0 87.61,-13.53 108.78,-21.76 l 2.35,-2.94 -5.29,-81.14 -5.29,-1.18 c -14.7,11.17 -38.81,28.22 -82.9,28.22 -95.85,0 -113.49,-88.781 -113.49,-139.352 0,-83.5 47.04,-133.476 114.07,-133.476 48.81,0 78.79,22.347 92.32,32.929 l 4.11,-2.351"
         style="fill:#1d3931;fill-opacity:1;fill-rule:nonzero;stroke:none"
         id="path34" /><path
         d="m 1957.88,772.449 -4.11,-71.738 -4.71,-3.52 h -258.72 l -2.94,2.348 c 1.77,61.742 2.94,98.781 2.94,172.871 0,157.59 -1.17,179.34 -4.7,236.38 l 3.53,3.53 h 258.13 l 2.94,-2.36 -4.12,-68.2 -2.94,-3.53 c -71.15,1.76 -84.67,1.76 -151.11,1.76 V 946.5 l 142.29,2.352 2.94,-3.532 -3.52,-66.441 -4.13,-3.527 h -137.58 l 1.17,-102.903 c 75.27,0 91.73,0.59 161.11,4.121 l 3.53,-4.121"
         style="fill:#1d3931;fill-opacity:1;fill-rule:nonzero;stroke:none"
         id="path36" /><path
         d="m 2188.51,944.148 c 14.11,-6.468 29.4,-13.527 45.28,-25.277 31.16,-24.109 44.09,-59.98 44.09,-93.5 0,-49.98 -21.16,-94.672 -70.56,-118.781 -35.28,-16.461 -79.96,-18.219 -97.6,-18.219 -44.1,0 -78.79,9.988 -92.32,14.699 -6.47,1.762 -12.93,4.711 -19.4,7.059 l -3.53,4.703 4.12,82.906 5.88,1.762 c 17.05,-13.52 47.04,-37.039 100.55,-37.039 51.15,0 70.56,26.461 70.56,48.801 0,31.168 -31.17,45.859 -71.74,62.918 l -19.41,8.82 c -32.92,15.871 -88.19,41.75 -88.19,112.891 0,62.919 38.22,125.249 148.76,125.249 57.03,0 83.49,-11.18 108.78,-21.76 l 2.94,-4.12 -4.7,-77.02 -5.3,-2.35 c -21.75,14.7 -48.21,32.92 -92.9,32.92 -38.81,0 -55.86,-22.93 -55.86,-41.16 0,-26.459 25.87,-37.041 75.26,-57.619 l 15.29,-5.883"
         style="fill:#1d3931;fill-opacity:1;fill-rule:nonzero;stroke:none"
         id="path38" /></g></g></svg>
